HIERARCHY
ROOT Hips
{
	OFFSET 0.000000 0.000000 0.000000
	CHANNELS 6 Xposition Yposition Zposition Zrotation Yrotation Xrotation 
	JOINT LowerBack
	{
		OFFSET 0.000000 0.000000 0.000000
		CHANNELS 3 Zrotation Yrotation Xrotation
		JOINT Spine
		{
			OFFSET 0.028270 2.035590 -0.193380
			CHANNELS 3 Zrotation Yrotation Xrotation
			JOINT Spine1
			{
				OFFSET 0.056720 2.048850 -0.042750
				CHANNELS 3 Zrotation Yrotation Xrotation
				JOINT Neck
				{
					OFFSET 0.000000 0.000000 0.000000
					CHANNELS 3 Zrotation Yrotation Xrotation
					JOINT Neck1
					{
						OFFSET -0.054170 1.746240 0.172020
						CHANNELS 3 Zrotation Yrotation Xrotation
						JOINT Head
						{
							OFFSET 0.104070 1.761360 -0.123970
							CHANNELS 3 Zrotation Yrotation Xrotation
							End Site
							{
								OFFSET 0.000000 0.000000 0.000000
							}
						}
					}
				}
				JOINT LeftShoulder
				{
					OFFSET 0.000000 0.000000 0.000000
					CHANNELS 3 Zrotation Yrotation Xrotation
					JOINT LeftArm
					{
						OFFSET 3.362410 1.200890 -0.311210
						CHANNELS 3 Zrotation Yrotation Xrotation
						JOINT LeftForeArm
						{
							OFFSET 4.983000 -0.000000 -0.000000
							CHANNELS 3 Zrotation Yrotation Xrotation
							JOINT LeftHand
							{
								OFFSET 3.483560 -0.000000 -0.000000
								CHANNELS 3 Zrotation Yrotation Xrotation
								JOINT LeftFingerBase
								{
									OFFSET 0.000000 0.000000 0.000000
									CHANNELS 3 Zrotation Yrotation Xrotation
									JOINT LeftHandIndex1
									{
										OFFSET 0.715260 -0.000000 -0.000000
										CHANNELS 3 Zrotation Yrotation Xrotation
										End Site
										{
											OFFSET 0.000000 0.000000 0.000000
										}
									}
								}
								JOINT LThumb
								{
									OFFSET 0.000000 0.000000 0.000000
									CHANNELS 3 Zrotation Yrotation Xrotation
									End Site
									{
										OFFSET 0.000000 0.000000 0.000000
									}
								}
							}
						}
					}
				}
				JOINT RightShoulder
				{
					OFFSET 0.000000 0.000000 0.000000
					CHANNELS 3 Zrotation Yrotation Xrotation
					JOINT RightArm
					{
						OFFSET -3.136600 1.374050 -0.404650
						CHANNELS 3 Zrotation Yrotation Xrotation
						JOINT RightForeArm
						{
							OFFSET -5.241900 -0.000000 -0.000000
							CHANNELS 3 Zrotation Yrotation Xrotation
							JOINT RightHand
							{
								OFFSET -3.444170 -0.000000 -0.000000
								CHANNELS 3 Zrotation Yrotation Xrotation
								JOINT RightFingerBase
								{
									OFFSET 0.000000 0.000000 0.000000
									CHANNELS 3 Zrotation Yrotation Xrotation
									JOINT RightHandIndex1
									{
										OFFSET -0.622530 -0.000000 -0.000000
										CHANNELS 3 Zrotation Yrotation Xrotation
										End Site
										{
											OFFSET 0.000000 0.000000 0.000000
										}
									}
								}
								JOINT RThumb
								{
									OFFSET 0.000000 0.000000 0.000000
									CHANNELS 3 Zrotation Yrotation Xrotation
									End Site
									{
										OFFSET 0.000000 0.000000 0.000000
									}
								}
							}
						}
					}
				}
			}
		}
	}
}
}
MOTION
Frames: 18
Frame Time: 0.008333
-1.599419 17.004318 -1.283067 11.710463 86.654305 32.087892 -7.890301 -1.747541 -5.290543 -2.028358 -1.294573 -3.924100 -5.386234 -1.388736 -0.051753 14.295637 -9.679770 -7.210912 -2.082402 -0.163505 0.096528 0.000000 0.000000 0.000000 -1.870288 11.399435 0.495018 -71.340269 23.056961 4.593333 179.940382 -87.106496 179.951745 15.143593 2.791908 0.357406 -0.227519 0.161806 -0.000000 0.000000 0.000000 0.000000 0.000000 0.000000 0.000000 11.460562 -3.705657 1.167450 60.041605 26.570120 38.069015 178.939587 80.159251 -179.957674 4.285937 6.057414 0.248064 0.003016 -0.534479 -0.000000 0.000000 0.000000 0.000000 0.000000 0.000000 0.000000 
-1.421970 16.965597 -1.260425 18.229904 86.734814 38.579619 -8.187788 -2.045290 -5.146808 -2.082966 -1.558948 -3.891875 -5.415069 -1.648012 -0.097295 14.493909 -9.537271 -7.147446 -2.053936 -0.161474 0.104836 0.000000 0.000000 0.000000 -2.426896 11.249785 0.596327 -70.286924 22.522117 4.969563 179.912159 -87.914069 179.949996 16.024315 3.188566 0.436450 -0.239912 0.151558 -0.000000 0.000000 0.000000 0.000000 0.000000 0.000000 0.000000 11.450151 -3.699013 1.118118 60.200257 26.739018 37.659392 178.933210 80.035133 -179.958123 4.298412 5.796410 0.238895 0.000764 -0.531692 -0.000000 0.000000 0.000000 0.000000 0.000000 0.000000 0.000000 
-1.249398 16.937720 -1.236800 23.110838 86.563776 43.372482 -8.467046 -2.257078 -4.953447 -2.141816 -1.739898 -3.854266 -5.458263 -1.823425 -0.147605 14.650734 -9.420134 -7.084510 -2.027896 -0.159536 0.112235 0.000000 0.000000 0.000000 -3.016164 11.139712 0.693124 -69.118051 21.690660 5.531656 179.879445 -88.888679 179.948456 16.843616 3.621547 0.525477 -0.250649 0.141269 -0.000000 0.000000 0.000000 0.000000 0.000000 0.000000 0.000000 11.406679 -3.681326 1.054810 60.527912 26.788549 37.242997 178.944053 80.043981 -179.959249 4.226147 5.458344 0.222149 0.000609 -0.526559 -0.000000 0.000000 0.000000 0.000000 0.000000 0.000000 0.000000 
-1.080839 16.921463 -1.213341 26.199165 86.175193 46.321819 -8.747572 -2.390427 -4.726467 -2.205362 -1.843299 -3.813739 -5.512879 -1.921798 -0.200533 14.771887 -9.334232 -7.023184 -2.005498 -0.157808 0.118827 0.000000 0.000000 0.000000 -3.626201 11.051024 0.785812 -67.884926 20.586762 6.241739 -0.157558 -89.988527 -0.052813 17.552919 4.066791 0.619083 -0.259194 0.131513 -0.000000 0.000000 0.000000 0.000000 0.000000 0.000000 0.000000 11.345874 -3.664510 0.980969 60.984205 26.722742 36.827464 178.970190 80.162396 -179.961168 4.046178 5.060971 0.198229 0.003097 -0.519723 -0.000000 0.000000 0.000000 0.000000 0.000000 0.000000 0.000000 
-0.915418 16.916853 -1.191164 27.729041 85.630425 47.672055 -9.012262 -2.456886 -4.480617 -2.268233 -1.881894 -3.772044 -5.575901 -1.955945 -0.252615 14.863046 -9.280289 -6.964526 -1.987563 -0.156379 0.124751 0.000000 0.000000 0.000000 -4.238810 10.971130 0.874921 -66.649986 19.240307 7.058401 -0.198978 -88.739449 -0.053815 18.112489 4.498201 0.710170 -0.265266 0.122938 -0.000000 0.000000 0.000000 0.000000 0.000000 0.000000 0.000000 11.280102 -3.656708 0.899023 61.522619 26.550537 36.417975 179.009183 80.363116 -179.963939 3.746338 4.630053 0.169034 0.008379 -0.511926 -0.000000 0.000000 0.000000 0.000000 0.000000 0.000000 0.000000 
-0.752229 16.923342 -1.171033 28.068750 84.981868 47.798826 -9.236378 -2.466956 -4.227930 -2.324432 -1.868049 -3.730366 -5.644305 -1.938046 -0.300158 14.931536 -9.256364 -6.908793 -1.974750 -0.155330 0.130311 0.000000 0.000000 0.000000 -4.828772 10.891671 0.959742 -65.479323 17.692158 7.937162 -0.244929 -87.392431 -0.054597 18.495563 4.888832 0.790942 -0.268810 0.116147 -0.000000 0.000000 0.000000 0.000000 0.000000 0.000000 0.000000 11.222342 -3.662254 0.812322 62.095293 26.288722 36.021240 179.058102 80.619977 -179.967539 3.326275 4.196202 0.136961 0.016325 -0.503962 -0.000000 0.000000 0.000000 0.000000 0.000000 0.000000 0.000000 
-0.590203 16.939786 -1.154283 27.370411 84.268153 46.868895 -9.377501 -2.425914 -3.989047 -2.364444 -1.810495 -3.692905 -5.714421 -1.877007 -0.343338 14.977574 -9.253570 -6.851754 -1.967258 -0.154798 0.137458 0.000000 0.000000 0.000000 -5.387753 10.797279 1.037429 -64.432189 16.013444 8.824622 -0.294596 -85.997397 -0.055191 18.688388 5.216315 0.854701 -0.269970 0.111515 0.000000 0.000000 0.000000 0.000000 0.000000 0.000000 0.000000 11.172408 -3.675884 0.725055 62.655876 25.951459 35.645265 179.113315 80.908095 -179.971833 2.802353 3.790754 0.105107 0.026423 -0.496500 -0.000000 0.000000 0.000000 0.000000 0.000000 0.000000 0.000000 
-0.428610 16.964778 -1.140933 25.987445 83.514737 45.241770 -9.425097 -2.345340 -3.773146 -2.385603 -1.721532 -3.660757 -5.782923 -1.785049 -0.381184 15.009059 -9.265261 -6.790067 -1.965427 -0.154879 0.147374 0.000000 0.000000 0.000000 -5.884523 10.676729 1.105467 -63.561932 14.270201 9.677808 -0.346753 -84.598996 -0.055651 18.694075 5.463501 0.896552 -0.269025 0.109320 0.000000 0.000000 0.000000 0.000000 0.000000 0.000000 0.000000 11.139914 -3.695937 0.641484 63.169852 25.559625 35.300780 179.171341 81.207609 -179.976589 2.203728 3.441809 0.075565 0.037945 -0.490143 -0.000000 0.000000 0.000000 0.000000 0.000000 0.000000 0.000000 
-0.266657 16.996621 -1.131127 24.117189 82.740099 43.126806 -9.365468 -2.236030 -3.592643 -2.384410 -1.613014 -3.636032 -5.845798 -1.674160 -0.414171 15.028880 -9.283153 -6.719129 -1.969034 -0.155650 0.161724 0.000000 0.000000 0.000000 -6.297890 10.518364 1.160642 -62.907745 12.535620 10.459903 -0.399170 -83.249500 -0.056020 18.529430 5.622153 0.914699 -0.266366 0.109629 0.000000 0.000000 0.000000 0.000000 0.000000 0.000000 0.000000 11.124974 -3.718564 0.565171 63.611765 25.132110 35.000224 179.228722 81.503173 -179.981501 1.572035 3.169760 0.049831 0.049937 -0.485199 -0.000000 0.000000 0.000000 0.000000 0.000000 0.000000 0.000000 
-0.103885 17.033597 -1.124219 22.005063 81.959040 40.775959 -9.204785 -2.112787 -3.451034 -2.361423 -1.499148 -3.618212 -5.899493 -1.558485 -0.440866 15.042965 -9.303345 -6.636935 -1.977903 -0.157124 0.181080 0.000000 0.000000 0.000000 -6.600703 10.319438 1.200566 -62.491709 10.861751 11.151782 -0.449315 -81.992367 -0.056355 18.223085 5.694225 0.910647 -0.262459 0.112381 0.000000 0.000000 0.000000 0.000000 0.000000 0.000000 0.000000 11.132768 -3.745600 0.498723 63.967913 24.692357 34.758086 179.282516 81.785245 -179.986199 0.954095 2.985326 0.028298 0.061424 -0.481747 -0.000000 0.000000 0.000000 0.000000 0.000000 0.000000 0.000000 
0.060106 17.074084 -1.119606 19.796148 81.188529 38.345058 -8.946156 -1.989584 -3.353966 -2.316599 -1.393652 -3.608044 -5.941372 -1.451806 -0.463022 15.052023 -9.319269 -6.539589 -1.991688 -0.159331 0.206638 0.000000 0.000000 0.000000 -6.779315 10.069874 1.223600 -62.315225 9.304420 11.738500 -0.494118 -80.876488 -0.056693 17.809232 5.690318 0.888302 -0.257724 0.117349 0.000000 0.000000 0.000000 0.000000 0.000000 0.000000 0.000000 11.159651 -3.775796 0.443407 64.236741 24.251723 34.583715 179.330340 82.048032 -179.990342 0.400432 2.888189 0.011060 0.071328 -0.479600 -0.000000 0.000000 0.000000 0.000000 0.000000 0.000000 0.000000 
0.225455 17.116604 -1.116305 17.635586 80.447329 35.986451 -8.602808 -1.881068 -3.301606 -2.251958 -1.310092 -3.604813 -5.969926 -1.367626 -0.481095 15.057545 -9.328094 -6.425772 -2.010098 -0.162250 0.238658 0.000000 0.000000 0.000000 -6.824115 9.766770 1.229283 -62.361019 7.894790 12.220603 -0.531025 -79.938784 -0.057065 17.324078 5.627177 0.853063 -0.252563 0.124244 0.000000 0.000000 0.000000 0.000000 0.000000 0.000000 0.000000 11.204277 -3.812022 0.399209 64.426239 23.820038 34.483187 179.370525 82.289372 -179.993602 -0.043192 2.868508 -0.002188 0.078706 -0.478398 -0.000000 0.000000 0.000000 0.000000 0.000000 0.000000 0.000000 
0.392123 17.159996 -1.113203 15.639735 79.755473 33.820229 -8.194023 -1.800714 -3.289628 -2.170803 -1.260343 -3.606998 -5.985097 -1.317697 -0.495396 15.060269 -9.328257 -6.296001 -2.032956 -0.165830 0.276740 0.000000 0.000000 0.000000 -6.733237 9.412239 1.218556 -62.593255 6.641483 12.611602 -0.558273 -79.205779 -0.057531 16.801558 5.524322 0.810436 -0.247349 0.132750 0.000000 0.000000 0.000000 0.000000 0.000000 0.000000 0.000000 11.265518 -3.857723 0.365046 64.550776 23.401495 34.455590 179.402159 82.509453 -179.995735 -0.339071 2.908462 -0.011054 0.082767 -0.477658 -0.000000 0.000000 0.000000 0.000000 0.000000 0.000000 0.000000 
0.559964 17.203334 -1.109286 13.875328 79.132000 31.917646 -7.737916 -1.758396 -3.315507 -2.076318 -1.252802 -3.613678 -5.987679 -1.310329 -0.505992 15.059680 -9.324782 -6.152421 -2.060268 -0.170013 0.320090 0.000000 0.000000 0.000000 -6.514756 9.003887 1.192106 -62.966481 5.546885 12.925587 -0.574875 -78.696058 -0.058093 16.268945 5.398065 0.764821 -0.242319 0.142556 0.000000 0.000000 0.000000 0.000000 0.000000 0.000000 0.000000 11.343481 -3.922479 0.340592 64.626091 23.002705 34.499055 179.424808 82.712083 -179.996602 -0.462823 2.985502 -0.015040 0.083093 -0.476824 -0.000000 0.000000 0.000000 0.000000 0.000000 0.000000 0.000000 
0.728506 17.246036 -1.103576 12.408377 78.591928 30.338784 -7.258235 -1.760925 -3.366425 -1.973136 -1.292212 -3.622234 -5.980366 -1.350038 -0.513230 15.055269 -9.316219 -5.998551 -2.092088 -0.174706 0.367274 0.000000 0.000000 0.000000 -6.183105 8.555835 1.153311 -63.421291 4.577652 13.194751 -0.581337 -78.408586 -0.058798 15.748726 5.264240 0.719920 -0.237796 0.153377 0.000000 0.000000 0.000000 0.000000 0.000000 0.000000 0.000000 11.436955 -4.005961 0.322861 64.672706 22.613993 34.595628 179.438922 82.897069 -179.996176 -0.401414 3.075308 -0.013451 0.079320 -0.475414 -0.000000 0.000000 0.000000 0.000000 0.000000 0.000000 0.000000 
0.897478 17.287728 -1.095425 11.247370 78.144055 29.091167 -6.770127 -1.809648 -3.437006 -1.864374 -1.378619 -3.631785 -5.965591 -1.436769 -0.517128 15.045433 -9.314261 -5.839408 -2.128783 -0.179844 0.416699 0.000000 0.000000 0.000000 -5.760068 8.065615 1.103263 -63.903300 3.716979 13.435863 -0.578306 -78.341319 -0.059624 15.253038 5.128230 0.677134 -0.233845 0.164990 0.000000 0.000000 0.000000 0.000000 0.000000 0.000000 0.000000 11.548419 -4.121120 0.312468 64.702489 22.240253 34.735901 179.445023 83.069764 -179.994550 -0.160264 3.154752 -0.005885 0.071727 -0.472959 -0.000000 0.000000 0.000000 0.000000 0.000000 0.000000 0.000000 
1.066352 17.328220 -1.084526 10.393192 77.789575 28.165465 -6.286579 -1.901892 -3.512684 -1.753149 -1.508089 -3.640017 -5.947041 -1.566368 -0.518187 15.027377 -9.317505 -5.680048 -2.170314 -0.185313 0.466574 0.000000 0.000000 0.000000 -5.271536 7.554399 1.046181 -64.355725 2.912729 13.682705 -0.567831 -78.469217 -0.060586 14.791738 4.993879 0.637362 -0.230709 0.177237 0.000000 0.000000 0.000000 0.000000 0.000000 0.000000 0.000000 11.673845 -4.262987 0.305968 64.730483 21.864428 34.891698 179.444447 83.227880 -179.991901 0.246700 3.204227 0.007353 0.060479 -0.469169 -0.000000 0.000000 0.000000 0.000000 0.000000 0.000000 0.000000 
1.234879 17.367418 -1.070909 9.810903 77.523114 27.522248 -5.811405 -2.030482 -3.586900 -1.640943 -1.673046 -3.646341 -5.927245 -1.731152 -0.516855 14.998409 -9.340687 -5.526184 -2.217096 -0.191057 0.515204 0.000000 0.000000 0.000000 -4.743678 7.017962 0.983063 -64.737656 2.146073 13.941356 -0.551173 -78.774503 -0.061633 14.365107 4.855587 0.599705 -0.228303 0.190022 0.000000 0.000000 0.000000 0.000000 0.000000 0.000000 0.000000 11.815395 -4.444148 0.305115 64.758774 21.492111 35.051627 179.438302 83.375823 -179.988502 0.786127 3.209928 0.024973 0.046514 -0.463855 -0.000000 0.000000 0.000000 0.000000 0.000000 0.000000 0.000000 
